<svg class="icon" viewBox="0 0 1024 1024" xmlns="http://www.w3.org/2000/svg" width="128" height="128"><defs><style/></defs><path d="M866.56 960v-64H896a64 64 0 0 0 64-64V128a64 64 0 0 0-64-64H128a64 64 0 0 0-64 64v704a64 64 0 0 0 64 64h622.912v64H128A128 128 0 0 1 0 832V128A128 128 0 0 1 128 0h768a128 128 0 0 1 128 128v704a128 128 0 0 1-128 128h-29.44zm0 0v-64H896a64 64 0 0 0 64-64V128a64 64 0 0 0-64-64H128a64 64 0 0 0-64 64v704a64 64 0 0 0 64 64h622.912v64H128A128 128 0 0 1 0 832V128A128 128 0 0 1 128 0h768a128 128 0 0 1 128 128v704a128 128 0 0 1-128 128h-29.44z"/><path d="M284.416 241.088a32 32 0 1 1 0 64H170.688a32 32 0 1 1 0-64h113.728zm284.48 0a32 32 0 1 1 0 64H455.04a32 32 0 0 1 0-64h113.92zm284.416 0a32 32 0 1 1 0 64H739.584a32 32 0 1 1 0-64h113.728zm-568.896 204.8a32 32 0 1 1 0 64H170.688a32 32 0 1 1 0-64h113.728zm284.48 0a32 32 0 1 1 0 64H455.04a32 32 0 0 1 0-64h113.92zm-284.48 204.8a32 32 0 1 1 0 64H170.688a32 32 0 0 1 0-64h113.728zm284.48 0a32 32 0 1 1 0 64H455.04a32 32 0 0 1 0-64h113.92zM801.024 473.6a54.208 54.208 0 0 0-54.208 54.208v335.744l54.208 82.24 54.208-82.24V527.808a54.208 54.208 0 0 0-54.208-54.208zm0-64c65.28 0 118.208 52.928 118.208 118.208v335.744a64 64 0 0 1-10.56 35.2l-54.208 82.24a64 64 0 0 1-106.88 0l-54.208-82.24a64 64 0 0 1-10.56-35.2V527.808c0-65.28 52.928-118.208 118.208-118.208z"/></svg>