<svg class="icon" viewBox="0 0 1026 1024" xmlns="http://www.w3.org/2000/svg" width="128.25" height="128"><defs><style/></defs><path d="M895.995 540.989V113.791c0-62.847-57.28-113.791-128-113.791H128C57.28 0 0 50.944 0 113.791v796.412c0 62.848 57.28 113.791 128 113.791h517.116v-64H128c-36.928 0-64-24.063-64-49.791V113.79C64 88.064 91.072 64 128 64h639.997c36.927 0 64 24.064 64 49.791V540.99h63.999zm0 158.72V113.726c0-62.783-57.28-113.727-128-113.727H128C57.28 0 0 50.944 0 113.791v796.412c0 62.848 57.28 113.791 128 113.791h516.604v-64H128c-36.928 0-64-24.063-64-49.791V113.79C64 88.064 91.072 64 128 64h639.997c36.927 0 64 24.064 64 49.791v555.197l63.999 30.72z"/><path d="M191.999 319.998a32 32 0 0 1 0-64h511.997a32 32 0 1 1 0 64H191.999zm0 192a32 32 0 0 1 0-64h383.998a32 32 0 0 1 0 64H191.999zm0 191.998a32 32 0 1 1 0-64h191.999a32 32 0 1 1 0 64h-192zm554.237 198.975a44.8 44.8 0 0 1 43.52 0l92.799 51.392-18.304-112.448a44.8 44.8 0 0 1 12.096-38.4l78.912-81.087-107.008-16.384a44.8 44.8 0 0 1-33.792-25.28l-46.463-99.263-46.464 99.2a44.8 44.8 0 0 1-33.792 25.343l-107.007 16.384 78.911 81.087a44.8 44.8 0 0 1 12.16 38.4l-18.368 112.448 92.8-51.392zm-73.28 113.791a57.6 57.6 0 0 1-84.8-59.647l18.88-115.904-80.831-83.071a57.6 57.6 0 0 1 32.512-97.088L667.9 644.348l47.936-102.399a57.6 57.6 0 0 1 104.32 0l47.935 102.4 109.184 16.64a57.6 57.6 0 0 1 32.511 97.15l-80.831 83.072 18.88 115.904a57.6 57.6 0 0 1-84.8 59.647l-95.04-52.671-95.039 52.671z"/></svg>