<svg t="1590051097453" class="icon" viewBox="0 0 1024 1024" version="1.1" width="32" height="32" xmlns:xlink="http://www.w3.org/1999/xlink"><defs><style type="text/css"></style></defs><path d="M749.714286 146.285714l-475.428571 0q-37.714286 0-64.571429 26.857143t-26.857143 64.571429l0 475.428571q0 37.714286 26.857143 64.571429t64.571429 26.857143l475.428571 0q37.714286 0 64.571429-26.857143t26.857143-64.571429l0-475.428571q0-37.714286-26.857143-64.571429t-64.571429-26.857143zm164.571429 91.428571l0 475.428571q0 68-48.285714 116.285714t-116.285714 48.285714l-475.428571 0q-68 0-116.285714-48.285714t-48.285714-116.285714l0-475.428571q0-68 48.285714-116.285714t116.285714-48.285714l475.428571 0q68 0 116.285714 48.285714t48.285714 116.285714z" p-id="7988"></path></svg>